<svg version="1.2" xmlns="http://www.w3.org/2000/svg" viewBox="0 0 800 250" width="800" height="250"><defs><linearGradient id="P" gradientUnits="userSpaceOnUse"/><linearGradient id="g1" x1="222" y1="-458.4" x2="85.3" y2="-498.6" href="#P"><stop stop-color="#d05cad"/><stop offset="1" stop-color="#2b257e"/></linearGradient><linearGradient id="g2" x1="-326" y1="1211.2" x2="-326.1" y2="1211.9" href="#P"><stop stop-color="#f0399d"/><stop offset="1" stop-color="#eb3f9f"/></linearGradient><linearGradient id="g3" x1="-288.6" y1="1675.1" x2="-288.8" y2="1675.9" href="#P"><stop stop-color="#f0399d"/><stop offset="1" stop-color="#eb3f9f"/></linearGradient><linearGradient id="g4" x1="228" y1="216.2" x2="228" y2="48.4" href="#P"><stop stop-color="#d05cad"/><stop offset="1" stop-color="#2b257e"/></linearGradient><linearGradient id="g5" x1="-378.1" y1="1121" x2="-378.2" y2="1121.6" href="#P"><stop stop-color="#f0399d"/><stop offset="1" stop-color="#eb3f9f"/></linearGradient><linearGradient id="g6" x1="-354.5" y1="1122.5" x2="-354.6" y2="1123.1" href="#P"><stop stop-color="#f0399d"/><stop offset="1" stop-color="#eb3f9f"/></linearGradient></defs><style>.s0{fill:url(#g1)}.s1{fill:url(#g2)}.s2{fill:url(#g3)}.s3{fill:url(#g4)}.s4{fill:url(#g5)}.s5{fill:url(#g6)}</style><path fill="#ffffff" aria-label="Sunblock"  d="m417.37 96.12h0.49q4.43 0 8.62 2.66q0.86 0.5 2.5 2.01q1.43 1.56 2.17 2.71q1.03 1.68 1.68 3.53q0.78 2.58 0.78 4.8v0.24q0 0.04-0.04 0.04h-5.25q-0.04 0-0.04-0.04v-0.12q0-3.65-2.63-6.81q-1.06-1.15-1.72-1.6q-2.95-2.09-6.23-2.09h-0.25q-3.28 0-6.23 2.13q-1.32 0.99-2.34 2.38q-1.93 2.91-1.93 5.99v0.33q0 3.44 2.3 6.48q1.15 1.31 1.84 1.84q1.73 1.23 2.88 1.56q1.51 0.66 4.55 0.66q2.13 0.16 3.65 0.57q1.72 0.54 3.12 1.23q1.35 0.66 2.58 1.6q0.37 0.25 1.35 1.15q1.4 1.31 1.85 2.01q1.02 1.31 1.64 2.46q1.97 3.9 1.97 7.79v0.54q0 4.1-2.18 8.12q-0.73 1.31-2.05 2.87q-1.47 1.6-2.05 1.97q-1.47 1.19-2.54 1.72q-3.94 2.13-8 2.13h-0.53q-4.1 0-8.12-2.21q-1.19-0.66-2.63-1.81q-1.43-1.27-2.34-2.37q-1.1-1.48-1.68-2.51q-2.05-3.93-2.05-7.91v-0.25q0-0.04 0.04-0.04h5.29q0.05 0 0.05 0.04v0.08q0 3.41 2.01 6.48q0.41 0.7 1.59 1.93q1.73 1.56 3.74 2.38q2.17 0.82 4.22 0.82h0.29q4.06 0 7.55-2.79q1.43-1.39 1.55-1.68q0.74-0.9 1.28-1.97q1.23-2.54 1.23-5.17v-0.2q0-4.27-3-7.75q-1.31-1.36-1.84-1.68q-1.07-0.74-1.93-1.11q-2.26-1.11-5.33-1.11q-2.67 0-5.83-1.23q-5.82-2.54-8.45-8.2q-1.39-3.2-1.39-6.28v-0.61q0-3.86 2.13-7.71q0.78-1.44 2.34-3.12q1.48-1.44 2.26-1.93q1.02-0.74 1.84-1.15q3.57-1.8 7.22-1.8zm27.11 17.88h5.17l0.04 0.04v23.58q0 2.79 0.33 4.07q0.82 3.19 2.91 5.57q0.98 1.11 1.64 1.6q3.69 2.87 8.2 2.87h0.05q5.16 0 9.18-3.77q1.48-1.56 1.93-2.46q0.66-0.94 1.23-2.5q0.74-2.18 0.74-4.02v-24.98h5.21l0.04 0.04v24.69q0 5.95-3.77 11.08q-0.7 0.9-1.56 1.76q-1.97 1.89-3.24 2.58q-4.56 2.83-9.72 2.83h-0.13q-5.99 0-11.07-3.73q-0.9-0.74-1.81-1.56q-1.68-1.8-2.21-2.66q-3.2-4.76-3.2-10.3v-24.69q0-0.04 0.04-0.04zm62.71 0h0.21q5.62 0 10.46 3.45q0.65 0.49 1.47 1.23q1.65 1.6 1.89 2.01q0.62 0.69 1.15 1.6q2.83 4.47 2.83 9.59v24.08q0 0.04-0.04 0.04h-5.05q-0.04 0-0.04-0.04v-24q0-4.83-3.32-8.61q-1.52-1.56-2.17-1.93q-3.33-2.29-7.3-2.29h-0.05q-4.47 0-8.12 2.95q-1.39 1.23-1.88 1.93q-0.99 1.27-1.56 2.5q-1.19 2.67-1.19 5.21v24.24q0 0.04-0.04 0.04h-5.05q-0.04 0-0.04-0.04v-24.08q0-5.86 3.65-10.83q0.7-0.86 1.52-1.72q1.76-1.68 2.63-2.17q4.67-3.16 10.04-3.16zm31.46-16.82v38.07q0 3.81 1.97 7.58q0.74 1.44 2.18 3.16q1.18 1.31 2.01 1.97q4.75 3.77 10.62 3.77h0.04q5.45 0 10.05-3.36q0.82-0.57 2.3-2.09q0.9-1.07 0.94-1.11q1.19-1.64 1.68-2.75q1.76-3.61 1.76-7.17v-0.58q0-4.22-2.38-8.37q-3.07-5-8.73-7.13q-2.79-0.99-5.66-0.99q-5.37 0-9.89 3.2q-0.73 0.54-2.21 1.97q-1.64 1.81-2.42 3.2l-0.12 0.25h-0.05v-8.25q1.32-1.15 2.34-1.84q5.74-3.78 12.23-3.78h0.2q6.69 0 12.51 3.94q1.11 0.78 2.71 2.22q1.56 1.6 2.21 2.5q1.23 1.6 2.01 3.2q2.5 4.84 2.5 10.05v0.24q0 6.07-3.32 11.53q-3.94 6.23-10.83 8.94q-3.77 1.43-7.79 1.43h-0.2q-6.12 0-11.61-3.36q-1.31-0.82-3-2.25q-1.6-1.52-2.25-2.38q-1.19-1.48-1.85-2.59q-3.2-5.37-3.2-11.36v-37.86zm47.05 0h5.25q0.04 0 0.04 0.04v58.74q0 0.04-0.04 0.04h-5.25q-0.04 0-0.04-0.04v-58.74q0-0.04 0.04-0.04zm35.35 15.84h0.21q6.68 0 12.47 3.93q1.15 0.78 2.58 2.09q1.48 1.44 2.01 2.18q1.15 1.48 1.81 2.58q3.03 5.29 3.03 11.12v0.2q0 6.03-3.28 11.49q-3.98 6.23-10.91 8.98q-3.82 1.39-7.71 1.39h-0.21q-6.07 0-11.6-3.36q-1.32-0.82-3.04-2.3q-1.52-1.47-2.01-2.13q-1.11-1.31-1.76-2.34q-3.45-5.53-3.45-11.77v-0.2q0-6.28 3.57-11.9q0.86-1.35 2.22-2.83q1.27-1.35 2.05-2.01q1.76-1.39 2.95-2.05q5.25-3.07 11.07-3.07zm-16.61 21.98q0 6.11 4.14 11.03q1.6 1.68 1.93 1.85q4.72 3.85 10.67 3.85h0.04q5.74 0 10.5-3.73q1.76-1.52 2.58-2.58q1.27-1.64 2.01-3.24q1.6-3.53 1.6-6.89v-0.58q0-4.18-2.34-8.28q-2.99-4.97-8.57-7.14q-2.83-1.02-5.82-1.02q-6.32 0-11.28 4.34q-1.52 1.48-2.05 2.26q-3.41 4.59-3.41 10.13zm68.83-21.98h0.2q6.32 0 11.94 3.6q1.23 0.78 2.91 2.3q1.8 1.77 2.38 2.59q1.23 1.64 1.97 2.99v0.04q-0.13 0.08-4.56 2.46h-0.08q-0.57-1.15-1.6-2.42q-0.53-0.78-2.05-2.17q-4.88-4.14-11.03-4.14h-0.08q-5.58 0-10.3 3.56q-0.78 0.62-1.97 1.85q-1.52 1.72-2.05 2.79q-2.38 3.98-2.38 8.53q0 5.95 3.94 10.79q1.39 1.56 2.38 2.29q4.72 3.65 10.46 3.65h0.04q5.91 0 10.75-3.93q1.72-1.56 2.33-2.46q0.99-1.19 1.56-2.34h0.08q4.43 2.38 4.56 2.46q-0.5 1.02-1.81 2.87q-0.78 0.94-1.68 1.93q-2.01 1.97-2.79 2.42q-1.64 1.27-3.61 2.17q-4.55 2.13-9.31 2.13h-0.2q-6.69 0-12.47-3.93q-1.07-0.7-2.67-2.18q-1.52-1.51-2.17-2.42q-1.23-1.64-1.89-2.83q-2.71-5.04-2.71-10.54v-0.2q0-6.03 3.33-11.49q4.02-6.35 11.19-9.1q3.69-1.27 7.39-1.27zm27.64-15.84h5.17q0.04 0 0.04 0.04v34.42h0.04q5.21-3.98 16.82-12.96q5.41-4.19 6.07-4.68h8.53v0.04q-0.33 0.29-13.62 10.5q-12.51 9.68-15.17 11.69q-0.09 0.08-2.67 2.09v17.64q0 0.04-0.04 0.04h-5.17q-0.04 0-0.04-0.04v-58.74q0-0.04 0.04-0.04zm16 35.48q0.28 0.25 10.91 12.31l9.76 10.99v0.04h-6.93q-0.62-0.66-9.85-11.07l-8.04-9.07q0.17-0.16 4.15-3.2z" /><path class="s0" d="m167.4 60.5c-5.2 3.8-9.9 8.2-14 13.2q-1.8-7.1-3-12.8c-6.1 12.8-11.4 25.9-15.8 39.4c-2 6.1-7.7 10.3-14.2 10.3q-21 0.2-42-1.6c15.1 9 25.8 20.8 38.8 31.8c4.2 3.4 5.2 9.4 2.6 14.1l-23.2 41.2c18.3-15.1 25.5-29.8 28.7-40.2c4.2-13.8 2-22 7-37.5c1.4-4.7 3.4-9.3 5.7-13.6c3.5-6.2 11.7-18.3 30.3-27.6c-8 5-14.8 11.7-19.9 19.7q-7.1 11.6-9.7 29.3q-0.7 4.2-0.9 8.7q-0.2 1.9-0.2 3.7c-0.7 23.1 6.8 36 3.2 51.5c-3.6 16.2-19.6 37.2-77.9 54.4c12.1-27.4 22.2-55.6 30.2-84.4c0.7-2.3 1.3-4.7 0.5-7c-0.7-2.2-2.4-3.6-4.1-5l-68.1-57.1l96.2-0.7l31.5-84.7z" /><path class="s1" d="m43.6 90.8l48.7 60l-70.9-59.8z" /><path class="s2" d="m156.3 27.5l-38.5 62.5l31.3-84.4q3.6 11 7.2 21.9z" /><path fill-rule="evenodd" class="s3" d="m238.7 216.2c-5 0-9.9-0.5-14.7-1.4c-4.9-1-9.6-2.4-14.2-4.3c-4.7-2-9.3-4.4-13.5-7.2c-12.9-8.5-22.9-20.6-28.8-34.8c-3.8-9.5-5.9-19.5-6.2-29.7c-4.5 29.6 4.9 54.6 28 74.5l-0.1 0.1l-0.2 0.3c-1.2-0.7-2.3-1.3-3.5-1.9q-3.9-2.1-7.5-4.6c-1.9-1.4-3.9-3-6.3-5c-1.1-0.9-2.2-1.9-3.1-2.7q-0.4-0.3-0.9-0.7q-1-0.7-1.8-1.6l-1.8-2.2l-0.2-0.2l-1.9-2.3l-0.5-0.6l-0.6-0.7l-3.2-3.9q-0.8-1-1.4-2.1q-0.2-0.5-0.5-1c-2.7-4.5-5-9.2-6.9-14.2c-1.8-5-3.1-10.1-3.9-15.3c-1-7.2-1.1-14.4-0.2-21.6c0.9-7.1 2.8-14.1 5.8-20.7c3.2-7.3 7.5-14.1 12.8-20.2c5.3-6 11.5-11.2 18.4-15.2c6-3.6 12.3-6.3 19-8.2c6.7-1.9 13.6-2.9 20.5-3q-0.2-0.1-0.4-0.2q-0.5-0.3-1-0.4q-6.1-0.9-12.1-0.9c-9 0-17.8 1.6-26.2 4.7q-8 3.2-15.4 7.6c-6.5 3.8-12.4 9.1-18.5 16.7q-0.1 0.1-0.2 0.2q-0.1 0.2-0.2 0.3c2-4.8 4.5-9.3 7.5-13.6c4.2-5.8 9.2-11 14.8-15.4c4.9-3.9 10.3-7.1 16-9.7c5.7-2.5 11.7-4.3 17.9-5.4q6.8-1.3 13.7-1.3c5.2 0 10.3 0.5 15.4 1.6c5.2 1.1 10.2 2.7 15 4.8c20.9 9.1 36.8 26.8 43.5 48.6c2.1 7.2 3.3 14.7 3.5 22.2c3.3-9.1 0.6-30.7-3.8-41.3c-5.2-13-13.6-24.4-24.6-33.1c7.2 3 13.8 7.2 19.6 12.3c18.3 16.1 27.9 40 25.8 64.3c-1.4 19.3-10.2 37.4-24.7 50.4c-3.5 3.3-7.4 6.3-11.5 8.9c-4 2.5-8.2 4.6-12.6 6.3q-6.6 2.5-13.5 3.8q-7.3 1.4-14.6 1.5c1.6 1.1 5.4 1.7 10.6 1.7c8.8 0 22.2-1.8 30.6-5.2c13.3-5.1 24.9-13.8 33.6-25.1c-9.3 22.6-34.5 45.6-69.8 46zm-8.5-112.2c-15.5 0-28 12.5-28 28c0 15.5 12.5 28 28 28c15.5 0 28-12.5 28-28c0-15.5-12.5-28-28-28z" /><path class="s4" d="m147.3 93.8q1.1-3 2.5-5.8c11.6-23.3 43.3-43.6 77.9-38.8c32.4 4.4 54.8 29.1 62.9 52.5c2.6 7.7 3.9 15.8 4 23.9c-11.7-33.5-40.9-57.3-74.5-60.5c-41.7-4.1-69.6 25.2-72.8 28.7z" /><path class="s5" d="m308.6 172.3q-1.1 2.9-2.5 5.7c-11.8 22.9-43 43.6-77.9 38.8c-32.4-4.5-54.8-29.1-62.9-52.6c-2.6-7.6-4-15.7-4-23.8c11.7 33.5 40.9 57.2 74.5 60.5c41.6 4.1 69.6-25.1 72.8-28.6z" /></svg>