<svg xmlns="http://www.w3.org/2000/svg" xmlns:xlink="http://www.w3.org/1999/xlink" width="337.066" height="346.984" viewBox="0 0 337.066 346.984">
  <defs>
    <linearGradient id="linear-gradient" x1="0.914" y1="0.561" x2="-0.017" y2="0.393" gradientUnits="objectBoundingBox">
      <stop offset="0" stop-color="#fb43df"/>
      <stop offset="1" stop-color="#46297b"/>
    </linearGradient>
    <linearGradient id="linear-gradient-2" x1="-12.068" y1="17.588" x2="-12.07" y2="17.601" gradientUnits="objectBoundingBox">
      <stop offset="0" stop-color="#e32190"/>
      <stop offset="1" stop-color="#e22a99"/>
    </linearGradient>
    <linearGradient id="linear-gradient-3" x1="-24.641" y1="13.518" x2="-24.645" y2="13.527" xlink:href="#linear-gradient-2"/>
    <linearGradient id="linear-gradient-4" x1="0.868" y1="0.027" x2="-0.008" y2="0.738" xlink:href="#linear-gradient"/>
    <linearGradient id="linear-gradient-5" x1="-6.675" y1="14.245" x2="-6.676" y2="14.254" xlink:href="#linear-gradient-2"/>
    <linearGradient id="linear-gradient-6" x1="-6.769" y1="13.053" x2="-6.77" y2="13.062" xlink:href="#linear-gradient-2"/>
  </defs>
  <g id="Sunblock" transform="translate(-417.102 -436)">
    <path id="Path_75" data-name="Path 75" d="M20.959-59.883h.492a15.831,15.831,0,0,1,8.613,2.666,15.953,15.953,0,0,1,2.5,2.01A20.8,20.8,0,0,1,34.74-52.5a18.958,18.958,0,0,1,1.682,3.527,16.691,16.691,0,0,1,.779,4.8v.246a.036.036,0,0,1-.041.041H31.91a.036.036,0,0,1-.041-.041v-.123a10.455,10.455,0,0,0-2.625-6.809,11.624,11.624,0,0,0-1.723-1.6,10.611,10.611,0,0,0-6.234-2.092h-.246a10.477,10.477,0,0,0-6.234,2.133,11.359,11.359,0,0,0-2.338,2.379,10.72,10.72,0,0,0-1.928,5.988v.328a10.548,10.548,0,0,0,2.3,6.48A14.3,14.3,0,0,0,14.684-35.4a10.137,10.137,0,0,0,2.871,1.559,12.042,12.042,0,0,0,4.553.656,20.081,20.081,0,0,1,3.65.574,20.57,20.57,0,0,1,3.117,1.23,14.988,14.988,0,0,1,2.584,1.6,14.431,14.431,0,0,1,1.354,1.148,12.864,12.864,0,0,1,1.846,2.01A17.443,17.443,0,0,1,36.3-24.158a17.147,17.147,0,0,1,1.969,7.793v.533a16.912,16.912,0,0,1-2.174,8.121A19.129,19.129,0,0,1,34.043-4.84a14.342,14.342,0,0,1-2.051,1.969,14.9,14.9,0,0,1-2.543,1.723,16.623,16.623,0,0,1-8,2.133h-.533A16.67,16.67,0,0,1,12.8-1.23a18.987,18.987,0,0,1-2.625-1.8A20.887,20.887,0,0,1,7.834-5.414a23.537,23.537,0,0,1-1.682-2.5A16.99,16.99,0,0,1,4.1-15.832v-.246a.036.036,0,0,1,.041-.041H9.434a.036.036,0,0,1,.041.041V-16a11.661,11.661,0,0,0,2.01,6.48,11.74,11.74,0,0,0,1.6,1.928,12.7,12.7,0,0,0,3.732,2.379,11.93,11.93,0,0,0,4.225.82h.287a11.842,11.842,0,0,0,7.547-2.789,10.83,10.83,0,0,0,1.559-1.682,10.543,10.543,0,0,0,1.271-1.969A11.752,11.752,0,0,0,32.936-16V-16.2a11.613,11.613,0,0,0-2.994-7.752A12.545,12.545,0,0,0,28.1-25.635a11.292,11.292,0,0,0-1.928-1.107,11.976,11.976,0,0,0-5.332-1.107,16.153,16.153,0,0,1-5.824-1.23,16.087,16.087,0,0,1-8.449-8.2,15.632,15.632,0,0,1-1.395-6.275v-.615A15.807,15.807,0,0,1,7.3-51.885,15.9,15.9,0,0,1,9.639-55a16.082,16.082,0,0,1,2.256-1.928,13.811,13.811,0,0,1,1.846-1.148A15.847,15.847,0,0,1,20.959-59.883ZM48.07-42h5.168l.041.041v23.584a17.914,17.914,0,0,0,.328,4.061A13.326,13.326,0,0,0,56.52-8.736a12.182,12.182,0,0,0,1.641,1.6,13.041,13.041,0,0,0,8.2,2.871H66.4a13.048,13.048,0,0,0,9.188-3.773A11.782,11.782,0,0,0,77.52-10.5,11.21,11.21,0,0,0,78.75-13a12.568,12.568,0,0,0,.738-4.02V-42H84.7l.041.041v24.691A18.313,18.313,0,0,1,80.965-6.193,18.468,18.468,0,0,1,79.406-4.43a16.989,16.989,0,0,1-3.24,2.584A18.1,18.1,0,0,1,66.445.984h-.123A18.326,18.326,0,0,1,55.248-2.748q-.9-.738-1.8-1.559a20.5,20.5,0,0,1-2.215-2.666,18.091,18.091,0,0,1-3.2-10.295V-41.959A.036.036,0,0,1,48.07-42Zm62.713,0h.205a17.679,17.679,0,0,1,10.459,3.445q.656.492,1.477,1.23a16.737,16.737,0,0,1,1.887,2.01,10.425,10.425,0,0,1,1.148,1.6,17.623,17.623,0,0,1,2.83,9.6V-.041a.036.036,0,0,1-.041.041H123.7a.036.036,0,0,1-.041-.041V-24.035a12.667,12.667,0,0,0-3.322-8.613,12.493,12.493,0,0,0-2.174-1.928,12.563,12.563,0,0,0-7.3-2.3h-.041A12.6,12.6,0,0,0,102.7-33.92a12.944,12.944,0,0,0-1.887,1.928,13.325,13.325,0,0,0-1.559,2.5,12.733,12.733,0,0,0-1.189,5.209V-.041A.036.036,0,0,1,98.027,0H92.982a.036.036,0,0,1-.041-.041V-24.117a17.887,17.887,0,0,1,3.65-10.828q.7-.861,1.518-1.723a16.325,16.325,0,0,1,2.625-2.174A17.618,17.618,0,0,1,110.783-42Zm31.459,21.246a16.263,16.263,0,0,0,1.969,7.588,17.789,17.789,0,0,0,2.174,3.158,18.519,18.519,0,0,0,2.01,1.969,16.673,16.673,0,0,0,10.623,3.773h.041a16.645,16.645,0,0,0,10.049-3.363,18.3,18.3,0,0,0,2.3-2.092q.9-1.066.943-1.107a16.177,16.177,0,0,0,1.682-2.748,16.238,16.238,0,0,0,1.764-7.178v-.574a16.646,16.646,0,0,0-2.379-8.367,16.973,16.973,0,0,0-8.736-7.137,16.9,16.9,0,0,0-5.66-.984,16.723,16.723,0,0,0-9.885,3.2,23,23,0,0,0-2.215,1.969,18.158,18.158,0,0,0-2.42,3.2l-.123.246h-.041v-8.244a25.018,25.018,0,0,1,2.338-1.846,21.872,21.872,0,0,1,12.223-3.773h.205a21.92,21.92,0,0,1,12.51,3.938,30.791,30.791,0,0,1,2.707,2.215,25.447,25.447,0,0,1,2.215,2.5,18.71,18.71,0,0,1,2.01,3.2,21.614,21.614,0,0,1,2.5,10.049v.246a21.809,21.809,0,0,1-3.322,11.525A22.008,22.008,0,0,1,166.893-.451,21.739,21.739,0,0,1,159.1.984h-.205a21.888,21.888,0,0,1-11.607-3.363,25.927,25.927,0,0,1-2.994-2.256,22.42,22.42,0,0,1-2.256-2.379A22.8,22.8,0,0,1,140.191-9.6a21.861,21.861,0,0,1-3.2-11.361V-58.816h5.25Zm47.045-38.062h5.25a.036.036,0,0,1,.041.041V-.041a.036.036,0,0,1-.041.041h-5.25a.036.036,0,0,1-.041-.041V-58.775A.036.036,0,0,1,189.287-58.816Zm35.355,15.832h.205a21.731,21.731,0,0,1,12.469,3.938,23.5,23.5,0,0,1,2.584,2.092,19.253,19.253,0,0,1,2.01,2.174,25.651,25.651,0,0,1,1.8,2.584,22.014,22.014,0,0,1,3.035,11.115v.205a21.941,21.941,0,0,1-3.281,11.484A22.429,22.429,0,0,1,232.559-.41,22.308,22.308,0,0,1,224.848.984h-.205a22.028,22.028,0,0,1-11.607-3.363A26.064,26.064,0,0,1,210-4.676a22.251,22.251,0,0,1-2.01-2.133,22.754,22.754,0,0,1-1.764-2.338,21.911,21.911,0,0,1-3.445-11.771v-.205a21.826,21.826,0,0,1,3.568-11.895,20.687,20.687,0,0,1,2.215-2.83,26.3,26.3,0,0,1,2.051-2.01,22.856,22.856,0,0,1,2.953-2.051A21.573,21.573,0,0,1,224.643-42.984ZM208.031-21a16.7,16.7,0,0,0,4.143,11.033A14.227,14.227,0,0,0,214.1-8.121a16.4,16.4,0,0,0,10.664,3.855h.041A16.62,16.62,0,0,0,235.307-8a18.881,18.881,0,0,0,2.584-2.584,16.871,16.871,0,0,0,2.01-3.24,16.617,16.617,0,0,0,1.6-6.891v-.574a16.575,16.575,0,0,0-2.338-8.285,16.858,16.858,0,0,0-8.572-7.137,16.971,16.971,0,0,0-5.824-1.025,16.646,16.646,0,0,0-11.279,4.348,17.285,17.285,0,0,0-2.051,2.256A16.63,16.63,0,0,0,208.031-21Zm68.824-21.984h.205A21.713,21.713,0,0,1,289-39.375a22.67,22.67,0,0,1,2.912,2.3,22.1,22.1,0,0,1,2.379,2.584,25.23,25.23,0,0,1,1.969,2.994v.041q-.123.082-4.553,2.461h-.082a13.626,13.626,0,0,0-1.6-2.42,14.7,14.7,0,0,0-2.051-2.174,16.6,16.6,0,0,0-11.033-4.143h-.082a16.7,16.7,0,0,0-10.295,3.568,21.271,21.271,0,0,0-1.969,1.846,14.492,14.492,0,0,0-2.051,2.789A16.342,16.342,0,0,0,260.162-21,16.673,16.673,0,0,0,264.1-10.213a17.645,17.645,0,0,0,2.379,2.3,16.685,16.685,0,0,0,10.459,3.65h.041A16.619,16.619,0,0,0,287.725-8.2a15.919,15.919,0,0,0,2.338-2.461A12.406,12.406,0,0,0,291.621-13h.082q4.43,2.379,4.553,2.461a21.7,21.7,0,0,1-1.8,2.871q-.779.943-1.682,1.928a18.746,18.746,0,0,1-2.789,2.42,18.342,18.342,0,0,1-3.609,2.174A21.731,21.731,0,0,1,277.061.984h-.205a21.731,21.731,0,0,1-12.469-3.937,21.808,21.808,0,0,1-2.666-2.174,22.491,22.491,0,0,1-2.174-2.42,25.189,25.189,0,0,1-1.887-2.83,22,22,0,0,1-2.707-10.541v-.205a21.74,21.74,0,0,1,3.322-11.484,22.327,22.327,0,0,1,11.2-9.105A22.547,22.547,0,0,1,276.855-42.984ZM304.5-58.816h5.168a.036.036,0,0,1,.041.041v34.412h.041q5.209-3.979,16.816-12.961,5.414-4.184,6.07-4.676h8.531v.041q-.328.287-13.617,10.5-12.51,9.68-15.176,11.689-.082.082-2.666,2.092V-.041a.036.036,0,0,1-.041.041H304.5a.036.036,0,0,1-.041-.041V-58.775A.036.036,0,0,1,304.5-58.816Zm16,35.479q.287.246,10.91,12.3L341.168-.041V0h-6.932q-.615-.656-9.844-11.074l-8.039-9.064Q316.518-20.3,320.5-23.338Z" transform="translate(413 782)" fill="#fff"/>
    <g id="logo" transform="translate(431 436)">
      <path id="Path_74" data-name="Path 74" d="M1005.61,911.36a77,77,0,0,0-13.94,13.24c-1.81-7.13-3-12.81-3-12.81a329.84,329.84,0,0,0-15.81,39.38,15,15,0,0,1-14.21,10.32q-21,.19-42-1.61c15.12,9,25.78,20.8,38.8,31.77a11.22,11.22,0,0,1,2.57,14.12L934.84,1047c18.32-15.16,25.5-29.78,28.69-40.24,4.21-13.81,2-22,7-37.52a72,72,0,0,1,5.73-13.55c3.47-6.2,11.7-18.28,30.27-27.63a62.411,62.411,0,0,0-19.88,19.76s-7.15,11.51-9.77,29.3c-.61,4.18-.9,8.62-.9,8.62-.08,1.28-.13,2.52-.17,3.74-.65,23.1,6.77,36,3.25,51.52-3.66,16.15-19.59,37.18-77.93,54.38A628.1,628.1,0,0,0,931.37,1011c.63-2.28,1.26-4.74.5-7s-2.47-3.62-4.16-5l-68.07-57.11,96.2-.67,31.48-84.71Z" transform="translate(-859.64 -856.5)" fill="url(#linear-gradient)"/>
      <path id="Path_26-2" data-name="Path 26-2" d="M881.8,941.71l48.76,59.94-70.92-59.77Z" transform="translate(-859.64 -856.5)" fill="url(#linear-gradient-2)"/>
      <path id="Path_27-2" data-name="Path 27-2" d="M994.57,878.39,956,940.88l31.35-84.38Q990.94,867.45,994.57,878.39Z" transform="translate(-859.64 -856.5)" fill="url(#linear-gradient-3)"/>
      <path id="Subtraction_1" data-name="Subtraction 1" d="M1076.9,1067.05a77.368,77.368,0,0,1-14.719-1.412,75.406,75.406,0,0,1-14.141-4.278,78.846,78.846,0,0,1-13.53-7.16,77,77,0,0,1-28.75-34.85,85.28,85.28,0,0,1-6.19-29.7c-4.5,29.6,4.88,54.67,27.91,74.51l-.07.1-.23.31c-1.13-.66-2.3-1.31-3.43-1.94a78.78,78.78,0,0,1-7.52-4.56c-1.92-1.37-3.93-3-6.33-5-1.07-.91-2.15-1.85-3.06-2.65-.29-.25-.61-.51-.91-.75a12.9,12.9,0,0,1-1.82-1.64l-1.79-2.15-.15-.18-1.93-2.3-.54-.66-.53-.63-3.24-3.9a13.419,13.419,0,0,1-1.39-2.18c-.17-.3-.34-.61-.52-.91a85.353,85.353,0,0,1-6.89-14.24,74.742,74.742,0,0,1-3.88-15.31A80.5,80.5,0,0,1,983,984a74.61,74.61,0,0,1,5.79-20.71,78.538,78.538,0,0,1,12.8-20.2,76.9,76.9,0,0,1,18.46-15.25A78.891,78.891,0,0,1,1039,919.7a80.916,80.916,0,0,1,20.52-3c-.15-.07-.3-.16-.44-.24a3,3,0,0,0-1-.42,87.2,87.2,0,0,0-12.09-.85,73.861,73.861,0,0,0-26.14,4.69,106.69,106.69,0,0,0-15.41,7.64c-6.54,3.79-12.44,9.08-18.56,16.65a1.785,1.785,0,0,1-.15.24c-.07.11-.15.21-.21.29a71.287,71.287,0,0,1,7.55-13.62,76,76,0,0,1,14.75-15.39,74.7,74.7,0,0,1,16-9.67,79.72,79.72,0,0,1,17.87-5.45,76.111,76.111,0,0,1,13.72-1.25,74,74,0,0,1,15.43,1.56,80.461,80.461,0,0,1,15,4.82,78.073,78.073,0,0,1,43.48,48.59,84.338,84.338,0,0,1,3.46,22.2c3.3-9.14.67-30.73-3.71-41.34a80.891,80.891,0,0,0-24.6-33.1A73.519,73.519,0,0,1,1124,914.39a76.87,76.87,0,0,1,25.84,64.24,75,75,0,0,1-24.67,50.43,78.19,78.19,0,0,1-11.55,8.87,72.543,72.543,0,0,1-12.57,6.33,77.005,77.005,0,0,1-13.57,3.86,88.652,88.652,0,0,1-14.54,1.44c1.62,1.1,5.4,1.7,10.62,1.7,8.81,0,22.15-1.77,30.61-5.14a78.73,78.73,0,0,0,33.51-25.1c-9.28,22.59-34.45,45.58-69.77,46Zm-8.47-112.25a28,28,0,1,0,28,28,28,28,0,0,0-28-28Z" transform="translate(-859.64 -856.5)" fill="url(#linear-gradient-4)"/>
      <path id="Path_28-2" data-name="Path 28-2" d="M985.53,944.7c3.2-3.49,31.11-32.82,72.79-28.76,33.65,3.28,62.85,27,74.46,60.51a73.551,73.551,0,0,0-4-23.84c-8.1-23.42-30.41-48.09-62.83-52.57-34.6-4.78-66.34,15.5-77.94,38.81a51.537,51.537,0,0,0-2.48,5.85Z" transform="translate(-859.64 -856.5)" fill="url(#linear-gradient-5)"/>
      <path id="Path_29-2" data-name="Path 29-2" d="M1146.83,1023.2c-3.25,3.51-31.18,32.68-72.81,28.58-33.63-3.31-62.81-27-74.45-60.51a73.281,73.281,0,0,0,4,23.84c8.1,23.43,30.41,48.1,62.83,52.57,34.92,4.82,66.17-15.9,77.92-38.8a55.3,55.3,0,0,0,2.51-5.68Z" transform="translate(-859.64 -856.5)" fill="url(#linear-gradient-6)"/>
    </g>
  </g>
</svg>
