<?xml version="1.0" encoding="iso-8859-1"?>
<!-- Generator: Adobe Illustrator 19.0.0, SVG Export Plug-In . SVG Version: 6.00 Build 0)  -->
<svg version="1.1" id="Layer_1" xmlns="http://www.w3.org/2000/svg" xmlns:xlink="http://www.w3.org/1999/xlink" x="0px" y="0px"
	 viewBox="0 0 504.123 504.123" style="enable-background:new 0 0 504.123 504.123;" xml:space="preserve">
<circle style="fill:#84DBFF;" cx="252.062" cy="252.062" r="252.062"/>
<path style="fill:#FFD05B;" d="M168.96,271.36h88.615c6.302,0,11.815,3.545,14.178,9.058l0,0c3.938,8.271-0.394,18.117-9.058,21.268
	l-35.446,12.603c-3.545,1.182-3.938,6.302-0.394,7.877l42.535,20.874c5.908,3.151,12.997,3.545,19.298,1.575l89.797-27.963
	c12.209-3.938,25.206,2.757,29.538,14.572l0,0c4.332,12.209-1.575,25.994-14.178,30.72l-121.305,46.08
	c-7.089,2.757-14.966,2.757-22.055-0.394L145.723,363.52L168.96,271.36z"/>
<polygon style="fill:#324A5E;" points="142.966,375.335 94.523,363.126 123.668,247.335 172.111,259.545 "/>
<circle style="fill:#FFFFFF;" cx="123.668" cy="349.342" r="10.24"/>
<rect x="176.443" y="107.52" style="fill:#2C9984;" width="240.246" height="134.302"/>
<g>
	<path style="fill:#E6E9EE;" d="M390.302,230.006H203.225v-2.757c0-6.302-5.12-11.815-11.815-11.815h-2.757v-81.526h2.757
		c6.302,0,11.815-5.12,11.815-11.815v-2.757h187.471v2.757c0,6.302,5.12,11.815,11.815,11.815h2.757v81.526h-2.757
		c-6.302,0-11.815,5.12-11.815,11.815v2.757H390.302z M208.738,224.492h176.049c1.182-7.483,7.089-13.391,14.572-14.572v-70.105
		c-7.483-1.182-13.391-7.089-14.572-14.572H208.738c-1.182,7.483-7.089,13.391-14.572,14.572v70.105
		C201.649,211.102,207.557,217.009,208.738,224.492z"/>
	<ellipse style="fill:#E6E9EE;" cx="296.566" cy="174.868" rx="36.628" ry="43.323"/>
</g>
<path style="fill:#2C9984;" d="M294.991,207.163v-5.514c-7.089-0.788-13.391-3.938-19.298-8.665l5.514-6.695
	c4.332,3.938,8.665,5.908,13.391,6.695v-14.966c-5.908-1.575-10.24-3.151-12.997-5.514c-2.757-2.363-3.938-5.514-3.938-10.24
	c0-4.332,1.575-8.271,4.726-11.028s7.089-4.332,12.209-4.726v-3.938h5.12v3.938c5.514,0.394,11.028,2.363,16.148,5.908l-4.726,7.089
	c-3.545-2.363-7.089-3.938-11.028-4.332v14.572h0.394c5.908,1.575,10.24,3.151,12.997,5.514c2.757,2.363,4.332,5.908,4.332,10.24
	c0,4.726-1.575,8.271-4.726,11.028c-3.151,2.757-7.483,4.332-12.603,4.726v5.514h-5.514V207.163z M289.477,156.751
	c-1.182,1.182-1.969,2.757-1.969,4.332s0.394,3.151,1.575,3.938c1.182,1.182,3.151,1.969,5.908,2.757v-13.391
	C292.628,154.782,290.658,155.569,289.477,156.751z M306.018,191.015c1.575-1.182,2.363-2.757,2.363-4.332
	c0-1.969-0.394-3.151-1.575-4.332s-3.151-1.969-6.302-3.151v13.785C302.474,192.985,304.443,192.197,306.018,191.015z"/>
<g>
	<circle style="fill:#E6E9EE;" cx="227.249" cy="174.868" r="9.058"/>
	<circle style="fill:#E6E9EE;" cx="366.277" cy="174.868" r="9.058"/>
</g>
<g>
</g>
<g>
</g>
<g>
</g>
<g>
</g>
<g>
</g>
<g>
</g>
<g>
</g>
<g>
</g>
<g>
</g>
<g>
</g>
<g>
</g>
<g>
</g>
<g>
</g>
<g>
</g>
<g>
</g>
</svg>
