<?xml version="1.0" encoding="iso-8859-1"?>
<!-- Generator: Adobe Illustrator 19.0.0, SVG Export Plug-In . SVG Version: 6.00 Build 0)  -->
<svg version="1.1" id="Layer_1" xmlns="http://www.w3.org/2000/svg" xmlns:xlink="http://www.w3.org/1999/xlink" x="0px" y="0px"
	 viewBox="0 0 508 508" style="enable-background:new 0 0 508 508;" xml:space="preserve">
<circle style="fill:#324A5E;" cx="254" cy="254" r="254"/>
<path style="fill:#FFFFFF;" d="M141.2,297.2c-43.2,0-78-35.2-78-78s34.8-78,78-78c2,0,3.6,0,5.6,0c5.2-34,34.8-60.4,70.8-60.4
	c18,0,35.2,6.8,48.4,18.8c14.4-12.8,32.8-20,52.4-20c43.6,0,78.8,35.2,78.8,78.8c0,2.8,0,5.6-0.4,8.4c28,7.6,48.8,33.2,48.8,63.6
	c0,36.4-29.6,66-66,66H141.2V297.2z"/>
<circle style="fill:#FFD05B;" cx="254" cy="306.4" r="86.4"/>
<circle style="fill:#F9B54C;" cx="254" cy="306.4" r="67.2"/>
<path style="fill:#FFD05B;" d="M269.2,272.4c-3.6-1.6-7.6-2-11.6-2c-14,0-26,9.2-31.2,22.4H218c-2.8,0-5.2,2.4-5.2,5.2
	c0,2.8,2.4,5.2,5.2,5.2h6.4c0,1.2,0,2.4,0,3.6s0,2.4,0,3.6H218c-2.8,0-5.2,2.4-5.2,5.2c0,2.8,2.4,5.2,5.2,5.2h8.4
	c5.2,13.2,17.2,22.4,31.2,22.4c3.2,0,6.4-0.4,9.6-1.6c2.8-0.8,4-3.6,3.2-6.4s-3.6-4-6.4-3.2c-2,0.8-4.4,0.8-6.4,0.8
	c-8.4,0-16-4.8-20-12.4h21.2c2.8,0,5.2-2.4,5.2-5.2c0-2.8-2.4-5.2-5.2-5.2h-24.4c0-1.2-0.4-2.4-0.4-3.6s0-2.4,0.4-3.6h24.4
	c2.8,0,5.2-2.4,5.2-5.2c0-2.8-2.4-5.2-5.2-5.2H238c4-7.6,11.6-12.4,20-12.4c2.8,0,5.2,0.4,7.6,1.6s5.6-0.4,6.4-2.8
	C273.2,276.4,272,273.6,269.2,272.4z"/>
<g>
	<path style="fill:#E6E9EE;" d="M186.8,176c-10-6.8-22.4-10.8-35.6-10.8c-35.2,0-63.2,28.4-63.2,63.2c0,14.4,4.8,27.6,12.8,38.4
		c-13.2-11.6-21.2-28.4-21.2-47.2c0-34.4,28-62.4,62.8-62.4C159.6,157.2,175.6,164.4,186.8,176z"/>
	<path style="fill:#E6E9EE;" d="M371.6,192c4-11.6,5.2-24.4,2-37.2c-8.4-34-42.8-55.2-77.2-46.4c-14,3.6-26,11.2-34.4,22
		c8-15.6,22.4-27.6,40.8-32c33.6-8.4,68,12.4,76,46C383.2,160.8,380,178,371.6,192z"/>
</g>
<g>
</g>
<g>
</g>
<g>
</g>
<g>
</g>
<g>
</g>
<g>
</g>
<g>
</g>
<g>
</g>
<g>
</g>
<g>
</g>
<g>
</g>
<g>
</g>
<g>
</g>
<g>
</g>
<g>
</g>
</svg>
