<svg id="Layer_1" data-name="Layer 1" xmlns="http://www.w3.org/2000/svg" viewBox="0 0 16.1 16.04"><defs><style>.cls-1{fill:#fff;}</style></defs><title>polar_logo_v3</title><path class="cls-1" d="M8.79,10.28c-.26.43-.5.85-.74,1.27-.1.17-.2.33-.29.51a.33.33,0,0,0,0,.17c.17.66.35,1.32.53,2a1.91,1.91,0,0,0,2,1.42,1.86,1.86,0,0,0,1.48-1,.66.66,0,0,1,.81-.31.65.65,0,0,1,.35,1,3.17,3.17,0,0,1-2,1.54,3.26,3.26,0,0,1-4-2.34c-.13-.51-.27-1-.4-1.53,0-.09-.05-.13-.17-.1-.29.09-.59.16-.89.24a.66.66,0,0,1-.81-.44.68.68,0,0,1,.48-.85l1.23-.32a.35.35,0,0,0,.23-.18c.29-.52.6-1.05.9-1.57l.08-.15h-2a.29.29,0,0,0-.19.07L4,11.13a1.86,1.86,0,0,0-.56,1.41A1.9,1.9,0,0,0,5.08,14.4l.26,0a.66.66,0,0,1,.68.65.67.67,0,0,1-.67.68,3.23,3.23,0,0,1-3.12-2.3,3.14,3.14,0,0,1,.82-3.27c.38-.4.78-.79,1.17-1.18l0-.05-.11-.12-.61-.62a.66.66,0,1,1,.94-.93c.31.3.61.62.93.92a.25.25,0,0,0,.16.08h2l0-.09c-.33-.55-.65-1.11-1-1.67a.26.26,0,0,0-.13-.1c-.7-.2-1.4-.4-2.12-.56A1.91,1.91,0,0,0,2.08,7.46a2,2,0,0,0,.24,1.23.66.66,0,0,1-.47,1,.64.64,0,0,1-.66-.32A3.13,3.13,0,0,1,.76,8.16,3.17,3.17,0,0,1,1.45,5.7,3.15,3.15,0,0,1,3.7,4.49a4.31,4.31,0,0,1,1.6.22L6.41,5c.1,0,.13,0,.15-.1.08-.29.16-.58.23-.87a.66.66,0,1,1,1.29.32c-.11.43-.23.86-.34,1.29a.28.28,0,0,0,0,.18l1,1.73,0,.05.47-.82.53-.91a.32.32,0,0,0,0-.25c-.18-.65-.35-1.31-.54-2A1.83,1.83,0,0,0,7.78,2.29a1.86,1.86,0,0,0-2,.89.74.74,0,0,1-.42.36.66.66,0,0,1-.71-.22.62.62,0,0,1,0-.74A3.13,3.13,0,0,1,6.73,1,3.25,3.25,0,0,1,10.6,3.38c.13.51.27,1,.4,1.52,0,.11.07.13.17.1l.9-.24a.67.67,0,1,1,.33,1.29l-1.23.33a.3.3,0,0,0-.24.18L10,8.13s0,.09-.08.14h2a.29.29,0,0,0,.19-.08c.49-.48,1-1,1.45-1.45a1.82,1.82,0,0,0,.45-1.94A1.87,1.87,0,0,0,12.57,3.5a1.83,1.83,0,0,0-.33,0,.67.67,0,1,1,0-1.33,3.25,3.25,0,0,1,2.3,5.55L13.37,8.87,13.31,9l.08.09.67.67a.66.66,0,0,1,0,.92.65.65,0,0,1-.92,0l-1-1A.29.29,0,0,0,12,9.61H10a.69.69,0,0,1,0,.1l1,1.68a.2.2,0,0,0,.12.1c.71.19,1.41.39,2.13.56a1.91,1.91,0,0,0,2.27-1.63,2,2,0,0,0-.25-1.23.67.67,0,0,1,.24-.92.68.68,0,0,1,.92.26,3.26,3.26,0,0,1-2.17,4.82,3.58,3.58,0,0,1-1.75-.11l-1.31-.35c-.1,0-.14,0-.16.09l-.24.9a.68.68,0,0,1-.64.5.66.66,0,0,1-.64-.49.81.81,0,0,1,0-.38c.1-.42.22-.85.33-1.28a.2.2,0,0,0,0-.15Z" transform="translate(-0.74 -0.93)"/></svg>