<?xml version="1.0" encoding="utf-8"?>
<!-- Generator: Adobe Illustrator 25.0.1, SVG Export Plug-In . SVG Version: 6.00 Build 0)  -->
<svg version="1.0" id="STRONG_Token" xmlns="http://www.w3.org/2000/svg" xmlns:xlink="http://www.w3.org/1999/xlink" x="0px"
	 y="0px" viewBox="0 0 856.8 700.8" style="enable-background:new 0 0 856.8 700.8;" xml:space="preserve">
<style type="text/css">
	.st0{fill:#0E67AE;}
	.st1{fill:none;stroke:#0E67AE;stroke-width:26;stroke-miterlimit:10;}
</style>
<path class="st0" d="M258.4,187.9h234c0.7,0,1.3,0.2,1.8,0.6l95.2,70c1.4,1,1.6,2.9,0.6,4.3c-0.6,0.8-1.5,1.2-2.5,1.2H340.4
	c-1.7,0-3.1,1.4-3.1,3.1v89.7c0,1.7,1.4,3.1,3.1,3.1l0,0h157.5c1.7,0,3.1,1.4,3.1,3.1v65.4c0,1.7-1.4,3.1-3.1,3.1H257.3
	c-1.7,0-3.1-1.4-3.1-3.1l0,0l1.1-237.3C255.3,189.3,256.6,188,258.4,187.9C258.3,187.9,258.4,187.9,258.4,187.9z"/>
<path class="st0" d="M595.7,519.6H352.2c-0.7,0-1.3-0.2-1.8-0.6l-89.5-66.2c-1.4-1-1.6-2.9-0.6-4.3c0.6-0.8,1.5-1.2,2.5-1.2h251
	c1.7,0,3.1-1.4,3.1-3.1l0,0v-97.3c0-1.7-1.4-3.1-3.1-3.1H358.6c-1.7,0-3.1-1.4-3.1-3l0,0v-57.7c0-1.7,1.4-3.1,3-3.1l0,0h238.3
	c1.7,0,3.1,1.4,3.1,3.1l0,0l-1.1,233.5C598.7,518.3,597.4,519.6,595.7,519.6z"/>
<circle class="st1" cx="428.4" cy="350.4" r="268.6"/>
</svg>
