<?xml version="1.0" encoding="iso-8859-1"?>
<!-- Generator: Adobe Illustrator 19.0.0, SVG Export Plug-In . SVG Version: 6.00 Build 0)  -->
<svg version="1.1" id="Layer_1" xmlns="http://www.w3.org/2000/svg" xmlns:xlink="http://www.w3.org/1999/xlink" x="0px" y="0px"
	 viewBox="0 0 496.159 496.159" style="enable-background:new 0 0 496.159 496.159;" xml:space="preserve">
<path style="fill:#48A1AF;" d="M248.083,0.003C111.071,0.003,0,111.063,0,248.085c0,137.001,111.07,248.07,248.083,248.07
	c137.006,0,248.076-111.069,248.076-248.07C496.159,111.062,385.089,0.003,248.083,0.003z"/>
<linearGradient id="SVGID_1_" gradientUnits="userSpaceOnUse" x1="145.477" y1="275.7442" x2="191.308" y2="275.7442" gradientTransform="matrix(1 0 0 -1 0 498.159)">
	<stop  offset="0" style="stop-color:#47474A"/>
	<stop  offset="0.62" style="stop-color:#616268"/>
	<stop  offset="1" style="stop-color:#6D6E75"/>
</linearGradient>
<path style="fill:url(#SVGID_1_);" d="M185.333,225.955l0.099-16.335c0-1.414-1.147-2.562-2.561-2.562h-28.955
	c-1.417,0-2.561,1.148-2.561,2.562l0.109,16.285l-5.987,8.999v1.746c0,1.414,1.146,1.088,2.56,1.088h40.707
	c1.415,0,2.564,0.326,2.564-1.088v-1.746L185.333,225.955z"/>
<linearGradient id="SVGID_2_" gradientUnits="userSpaceOnUse" x1="168.3925" y1="292.5655" x2="168.3925" y2="262.129" gradientTransform="matrix(1 0 0 -1 0 498.159)">
	<stop  offset="0.115" style="stop-color:#737377"/>
	<stop  offset="0.189" style="stop-color:#707073"/>
	<stop  offset="0.497" style="stop-color:#656766"/>
	<stop  offset="0.624" style="stop-color:#4D4D51"/>
	<stop  offset="1" style="stop-color:#343439"/>
</linearGradient>
<path style="fill:url(#SVGID_2_);" d="M185.333,224.487l0.099-16.333c0-1.419-1.147-2.561-2.561-2.561h-28.955
	c-1.417,0-2.561,1.142-2.561,2.561l0.109,16.283l-5.987,10.467c0,1.416,1.146,1.094,2.56,1.094h40.707
	c1.415,0,2.564,0.322,2.564-1.094L185.333,224.487z"/>
<path style="fill:#08090B;" d="M239.421,99.016H97.367c-5.32,0-9.629,4.313-9.629,9.631v95.104c0,5.318,4.31,9.628,9.629,9.628
	h142.054c5.316,0,9.629-4.31,9.629-9.628v-95.104C249.05,103.329,244.737,99.016,239.421,99.016z"/>
<rect x="94.66" y="105.349" style="fill:#343433;" width="147.17" height="0.505"/>
<g>
	<path style="fill:#08090B;" d="M97.367,99.016c-5.32,0-9.629,4.313-9.629,9.631v83.53h6.925v-86.688h115.732l4.525-6.474
		L97.367,99.016L97.367,99.016z"/>
	<path style="fill:#08090B;" d="M239.421,99.016H214.92l-4.525,6.474h31.436v86.688h7.22v-83.53
		C249.05,103.329,244.737,99.016,239.421,99.016z"/>
</g>
<g style="opacity:0.3;">
	
		<linearGradient id="SVGID_3_" gradientUnits="userSpaceOnUse" x1="210.395" y1="352.5615" x2="255.545" y2="352.5615" gradientTransform="matrix(1 0 0 -1 0 498.159)">
		<stop  offset="0" style="stop-color:#959397"/>
		<stop  offset="0.234" style="stop-color:#A6A4AA"/>
		<stop  offset="0.731" style="stop-color:#C4C2CC"/>
		<stop  offset="1" style="stop-color:#D0CED9"/>
	</linearGradient>
	<path style="fill:url(#SVGID_3_);" d="M239.421,99.016H214.92l-4.525,6.474h31.436v86.688h7.22v-83.53
		C249.05,103.329,244.737,99.016,239.421,99.016z"/>
</g>
<rect x="94.66" y="105.489" style="fill:#676767;" width="147.17" height="100.96"/>
<g style="opacity:0.3;">
	
		<linearGradient id="SVGID_4_" gradientUnits="userSpaceOnUse" x1="139.843" y1="342.1915" x2="268.303" y2="342.1915" gradientTransform="matrix(1 0 0 -1 0 498.159)">
		<stop  offset="0" style="stop-color:#959397"/>
		<stop  offset="0.234" style="stop-color:#A6A4AA"/>
		<stop  offset="0.731" style="stop-color:#C4C2CC"/>
		<stop  offset="1" style="stop-color:#D0CED9"/>
	</linearGradient>
	<polygon style="fill:url(#SVGID_4_);" points="210.394,105.489 149.815,192.177 139.843,206.445 241.83,206.445 241.83,105.489 	
		"/>
</g>
<linearGradient id="SVGID_5_" gradientUnits="userSpaceOnUse" x1="304.849" y1="116.3711" x2="350.68" y2="116.3711" gradientTransform="matrix(1 0 0 -1 0 498.159)">
	<stop  offset="0" style="stop-color:#47474A"/>
	<stop  offset="0.62" style="stop-color:#616268"/>
	<stop  offset="1" style="stop-color:#6D6E75"/>
</linearGradient>
<path style="fill:url(#SVGID_5_);" d="M344.705,385.328l0.099-16.335c0-1.414-1.147-2.562-2.561-2.562h-28.955
	c-1.417,0-2.561,1.148-2.561,2.562l0.109,16.286l-5.987,8.999v1.746c0,1.414,1.146,1.087,2.56,1.087h40.707
	c1.415,0,2.564,0.326,2.564-1.087v-1.746L344.705,385.328z"/>
<linearGradient id="SVGID_6_" gradientUnits="userSpaceOnUse" x1="327.7645" y1="133.1925" x2="327.7645" y2="102.756" gradientTransform="matrix(1 0 0 -1 0 498.159)">
	<stop  offset="0.115" style="stop-color:#737377"/>
	<stop  offset="0.189" style="stop-color:#707073"/>
	<stop  offset="0.497" style="stop-color:#656766"/>
	<stop  offset="0.624" style="stop-color:#4D4D51"/>
	<stop  offset="1" style="stop-color:#343439"/>
</linearGradient>
<path style="fill:url(#SVGID_6_);" d="M344.705,383.86l0.099-16.333c0-1.419-1.147-2.561-2.561-2.561h-28.955
	c-1.417,0-2.561,1.142-2.561,2.561l0.109,16.283l-5.987,10.467c0,1.416,1.146,1.094,2.56,1.094h40.707
	c1.415,0,2.564,0.322,2.564-1.094L344.705,383.86z"/>
<path style="fill:#08090B;" d="M398.793,258.388H256.739c-5.32,0-9.629,4.313-9.629,9.631v95.104c0,5.318,4.31,9.628,9.629,9.628
	h142.054c5.316,0,9.629-4.31,9.629-9.628v-95.104C408.423,262.701,404.11,258.388,398.793,258.388z"/>
<rect x="254.03" y="264.719" style="fill:#343433;" width="147.17" height="0.505"/>
<g>
	<path style="fill:#08090B;" d="M256.739,258.388c-5.32,0-9.629,4.313-9.629,9.631v83.53h6.925v-86.688h115.732l4.525-6.474H256.739
		V258.388z"/>
	<path style="fill:#08090B;" d="M398.793,258.388h-24.501l-4.525,6.474h31.437v86.688h7.219v-83.53
		C408.423,262.701,404.11,258.388,398.793,258.388z"/>
</g>
<g style="opacity:0.3;">
	
		<linearGradient id="SVGID_7_" gradientUnits="userSpaceOnUse" x1="369.767" y1="193.1895" x2="414.907" y2="193.1895" gradientTransform="matrix(1 0 0 -1 0 498.159)">
		<stop  offset="0" style="stop-color:#959397"/>
		<stop  offset="0.234" style="stop-color:#A6A4AA"/>
		<stop  offset="0.731" style="stop-color:#C4C2CC"/>
		<stop  offset="1" style="stop-color:#D0CED9"/>
	</linearGradient>
	<path style="fill:url(#SVGID_7_);" d="M398.793,258.388h-24.501l-4.525,6.474h31.437v86.688h7.219v-83.53
		C408.423,262.701,404.11,258.388,398.793,258.388z"/>
</g>
<rect x="254.03" y="264.859" style="fill:#676767;" width="147.17" height="100.96"/>
<g style="opacity:0.3;">
	
		<linearGradient id="SVGID_8_" gradientUnits="userSpaceOnUse" x1="299.215" y1="182.8185" x2="427.675" y2="182.8185" gradientTransform="matrix(1 0 0 -1 0 498.159)">
		<stop  offset="0" style="stop-color:#959397"/>
		<stop  offset="0.234" style="stop-color:#A6A4AA"/>
		<stop  offset="0.731" style="stop-color:#C4C2CC"/>
		<stop  offset="1" style="stop-color:#D0CED9"/>
	</linearGradient>
	<polygon style="fill:url(#SVGID_8_);" points="369.767,264.862 309.188,351.549 299.215,365.818 401.204,365.818 401.204,264.862 	
		"/>
</g>
<g>
	<path style="fill:#FFFFFF;" d="M380.312,206.359c-3.571-1.092-7.141-2.182-10.711-3.273c-2.477-20.465-14.219-38.316-33.153-47.567
		c-21.095-10.307-45.484-6.553-63.717,7.658c-8.099,6.31,2.785,17.913,10.815,11.653c25.007-19.488,61.359-5.821,69.119,23.08
		c-3.299-1.008-6.597-2.016-9.896-3.023c-0.922-0.282-1.705-0.074-2.288,0.38c-0.881,0.507-1.454,1.467-1.09,2.756
		c3.273,11.674,6.547,23.349,9.822,35.024c0.55,1.962,2.831,2.652,4.383,1.334c9.24-7.85,18.48-15.7,27.72-23.551
		C382.845,209.531,382.162,206.924,380.312,206.359z"/>
	<path style="fill:#FFFFFF;" d="M205.847,322.108c-25.97,18.186-61.576,2.68-67.849-26.58c3.243,1.175,6.485,2.35,9.729,3.525
		c0.907,0.329,1.699,0.161,2.304-0.263c0.906-0.46,1.526-1.39,1.23-2.696c-2.673-11.826-5.346-23.653-8.021-35.48
		c-0.45-1.988-2.691-2.792-4.309-1.556c-9.629,7.367-19.258,14.735-28.887,22.104c-1.593,1.218-1.045,3.856,0.773,4.515
		c3.51,1.272,7.02,2.544,10.53,3.816c1.428,20.565,12.244,38.993,30.68,49.199c20.541,11.371,45.09,8.868,64.025-4.393
		C224.463,328.41,214.186,316.267,205.847,322.108z"/>
</g>
<g>
</g>
<g>
</g>
<g>
</g>
<g>
</g>
<g>
</g>
<g>
</g>
<g>
</g>
<g>
</g>
<g>
</g>
<g>
</g>
<g>
</g>
<g>
</g>
<g>
</g>
<g>
</g>
<g>
</g>
</svg>
