<?xml version="1.0" encoding="UTF-8" standalone="no"?>
<!-- Creator: CorelDRAW Home & Student 2018 -->

<svg
   xmlns:dc="http://purl.org/dc/elements/1.1/"
   xmlns:cc="http://creativecommons.org/ns#"
   xmlns:rdf="http://www.w3.org/1999/02/22-rdf-syntax-ns#"
   xmlns:svg="http://www.w3.org/2000/svg"
   xmlns="http://www.w3.org/2000/svg"
   xmlns:sodipodi="http://sodipodi.sourceforge.net/DTD/sodipodi-0.dtd"
   xmlns:inkscape="http://www.inkscape.org/namespaces/inkscape"
   xml:space="preserve"
   width="500"
   height="500"
   version="1.1"
   style="clip-rule:evenodd;fill-rule:evenodd;image-rendering:optimizeQuality;shape-rendering:geometricPrecision;text-rendering:geometricPrecision"
   viewBox="0 0 519.50428 519.31383"
   id="svg65"
   sodipodi:docname="Yield-nodes-logo-icon.svg"
   inkscape:export-filename="Z:\My Drive\Projects\Yieldnodes\Betatest-yieldnodes-com\Images\yield-nodes-site-img.png"
   inkscape:export-xdpi="96"
   inkscape:export-ydpi="96"
   inkscape:version="0.92.4 (5da689c313, 2019-01-14)"><metadata
   id="metadata69"><rdf:RDF><cc:Work
       rdf:about=""><dc:format>image/svg+xml</dc:format><dc:type
         rdf:resource="http://purl.org/dc/dcmitype/StillImage" /><dc:title></dc:title></cc:Work></rdf:RDF></metadata><sodipodi:namedview
   pagecolor="#ffffff"
   bordercolor="#666666"
   borderopacity="1"
   objecttolerance="10"
   gridtolerance="10"
   guidetolerance="10"
   inkscape:pageopacity="0"
   inkscape:pageshadow="2"
   inkscape:window-width="1680"
   inkscape:window-height="997"
   id="namedview67"
   showgrid="false"
   inkscape:zoom="0.74316894"
   inkscape:cx="-73.448262"
   inkscape:cy="57.035567"
   inkscape:window-x="1672"
   inkscape:window-y="-8"
   inkscape:window-maximized="1"
   inkscape:current-layer="g920" />
 <defs
   id="defs4">
  <style
   type="text/css"
   id="style2">
   <![CDATA[
    .str0 {stroke:white;stroke-width:17.32;stroke-miterlimit:10}
    .str1 {stroke:#FBC011;stroke-width:56.28;stroke-miterlimit:10}
    .str2 {stroke:#FBC011;stroke-width:0.94;stroke-miterlimit:22.9256}
    .fil1 {fill:none;fill-rule:nonzero}
    .fil2 {fill:#FBC011;fill-rule:nonzero}
    .fil0 {fill:white;fill-rule:nonzero}
   ]]>
  </style>
 </defs>
 
 <g
   id="__x0023_Layer_x0020_1"
   transform="translate(0,-457.16377)">
  <metadata
   id="CorelCorpID_1Corel-Layer" />
  
  
  
  
  
  <path
   class="fil0"
   d="m 2197.319,-230.51903 h 224.79 c 20.04,0 38.26,8.7 54.59,26.11 7.36,10.39 11.07,20.72 11.07,30.84 v 154.199998 c 0,0.68 -0.34,1.02 -1.01,1.02 h -66 c -0.68,0 -1.01,-0.34 -1.01,-1.02 V -142.11903 c 0,-18.69 -8.04,-30.91 -24.1,-36.58 -3.84,-0.94 -7.35,-1.41 -10.52,-1.41 h -121 v 160.739998 c 0,0.68 -0.34,1.02 -0.95,1.02 h -65.86 c -0.68,0 -0.95,-0.34 -0.95,-1.02 V -229.50903 c 0.07,-0.68 0.41,-1.01 0.95,-1.01 z"
   id="path49"
   inkscape:connector-curvature="0"
   style="fill:#ffffff;fill-rule:nonzero" />
  
  
  
  
  
  
  
  
  
 </g>
<g
   id="g920"><g
     transform="matrix(0.67975471,0,0,0.59676667,-45.48832,-38.407558)"
     id="Layer_x0020_1">
  <metadata
   id="CorelCorpID_0Corel-Layer" />
  
  <g
   transform="matrix(0.78241049,0,0,0.75298158,97.707481,142.80178)"
   id="g896"><g
     id="_843104992"
     style="stroke:#ffffff;stroke-width:38.30950126;stroke-miterlimit:4;stroke-dasharray:none;stroke-opacity:0.98039216">
   <path
   class="fil0"
   d="m 801.88,621.67 c 21.68,0 39.26,17.58 39.26,39.26 0,21.68 -17.58,39.26 -39.26,39.26 -21.69,0 -39.26,-17.58 -39.26,-39.26 0,-21.68 17.57,-39.26 39.26,-39.26 z"
   id="path7"
   inkscape:connector-curvature="0"
   style="fill:#ffffff;fill-rule:nonzero;stroke:#ffffff;stroke-width:38.30950126;stroke-miterlimit:4;stroke-dasharray:none;stroke-opacity:0.98039216" />
   <line
   class="fil1 str0"
   x1="90.459999"
   y1="653.23999"
   x2="401.70001"
   y2="866.56"
   id="line9"
   style="fill:none;fill-rule:nonzero;stroke:#ffffff;stroke-width:38.30950126;stroke-miterlimit:4;stroke-dasharray:none;stroke-opacity:0.98039216" />
   <line
   class="fil1 str0"
   x1="807.63"
   y1="656.95001"
   x2="503.10999"
   y2="865.65997"
   id="line11"
   style="fill:none;fill-rule:nonzero;stroke:#ffffff;stroke-width:38.30950126;stroke-miterlimit:4;stroke-dasharray:none;stroke-opacity:0.98039216" />
   <path
   class="fil0"
   d="m 93.62,621.67 c 21.68,0 39.26,17.58 39.26,39.26 0,21.68 -17.58,39.26 -39.26,39.26 -21.69,0 -39.27,-17.58 -39.27,-39.26 0,-21.68 17.58,-39.26 39.27,-39.26 z"
   id="path13"
   inkscape:connector-curvature="0"
   style="fill:#ffffff;fill-rule:nonzero;stroke:#ffffff;stroke-width:38.30950126;stroke-miterlimit:4;stroke-dasharray:none;stroke-opacity:0.98039216" />
   <line
   class="fil1 str0"
   x1="747.76001"
   y1="225.61"
   x2="450.76001"
   y2="22.02"
   id="line15"
   style="fill:none;fill-rule:nonzero;stroke:#ffffff;stroke-width:38.30950126;stroke-miterlimit:4;stroke-dasharray:none;stroke-opacity:0.98039216" />
   <line
   class="fil1 str0"
   x1="150.19"
   y1="227.10001"
   x2="448.26999"
   y2="22.82"
   id="line17"
   style="fill:none;fill-rule:nonzero;stroke:#ffffff;stroke-width:38.30950126;stroke-miterlimit:4;stroke-dasharray:none;stroke-opacity:0.98039216" />
   <path
   class="fil0"
   d="m 449.24,0 c 21.68,0 39.26,17.58 39.26,39.26 0,21.69 -17.58,39.27 -39.26,39.27 -21.69,0 -39.27,-17.58 -39.27,-39.27 C 409.97,17.58 427.55,0 449.24,0 Z"
   id="path19"
   inkscape:connector-curvature="0"
   style="fill:#ffffff;fill-rule:nonzero;stroke:#ffffff;stroke-width:38.30950126;stroke-miterlimit:4;stroke-dasharray:none;stroke-opacity:0.98039216" />
   <line
   class="fil1 str0"
   x1="802.5"
   y1="349.32001"
   x2="802.5"
   y2="649.64001"
   id="line21"
   style="fill:none;fill-rule:nonzero;stroke:#ffffff;stroke-width:38.30950126;stroke-miterlimit:4;stroke-dasharray:none;stroke-opacity:0.98039216" />
   <line
   class="fil1 str0"
   x1="94.239998"
   y1="349.32001"
   x2="94.239998"
   y2="632.33002"
   id="line23"
   style="fill:none;fill-rule:nonzero;stroke:#ffffff;stroke-width:38.30950126;stroke-miterlimit:4;stroke-dasharray:none;stroke-opacity:0.98039216" />
  </g><g
     id="_843106648"
     style="stroke:#fbc011;stroke-width:38.9832384;stroke-miterlimit:4;stroke-dasharray:none;stroke-opacity:1">
   <path
   class="fil1 str1"
   d="m 448.96,814.52 c 36.9,0 66.82,29.92 66.82,66.83 0,36.9 -29.92,66.82 -66.82,66.82 -36.91,0 -66.82,-29.92 -66.82,-66.82 0,-36.91 29.91,-66.83 66.82,-66.83 z"
   id="path26"
   inkscape:connector-curvature="0"
   style="fill:none;fill-rule:nonzero;stroke:#fbc011;stroke-width:38.9832384;stroke-miterlimit:4;stroke-dasharray:none;stroke-opacity:1" />
   <path
   class="fil1 str1"
   d="m 449.24,407.14 c 36.9,0 66.82,29.92 66.82,66.82 0,36.91 -29.92,66.83 -66.82,66.83 -36.91,0 -66.83,-29.92 -66.83,-66.83 0,-36.9 29.92,-66.82 66.83,-66.82 z"
   id="path28"
   inkscape:connector-curvature="0"
   style="fill:none;fill-rule:nonzero;stroke:#fbc011;stroke-width:38.9832384;stroke-miterlimit:4;stroke-dasharray:none;stroke-opacity:1" />
   <path
   class="fil1 str1"
   d="m 94.97,200.61 c 36.9,0 66.82,29.92 66.82,66.82 0,36.91 -29.92,66.83 -66.82,66.83 -36.91,0 -66.83,-29.92 -66.83,-66.83 0,-36.9 29.92,-66.82 66.83,-66.82 z"
   id="path30"
   inkscape:connector-curvature="0"
   style="fill:none;fill-rule:nonzero;stroke:#fbc011;stroke-width:38.9832384;stroke-miterlimit:4;stroke-dasharray:none;stroke-opacity:1" />
   <path
   class="fil1 str1"
   d="m 803.12,200.61 c 36.91,0 66.83,29.92 66.83,66.82 0,36.91 -29.92,66.83 -66.83,66.83 -36.9,0 -66.82,-29.92 -66.82,-66.83 0,-36.9 29.92,-66.82 66.82,-66.82 z"
   id="path32"
   inkscape:connector-curvature="0"
   style="fill:none;fill-rule:nonzero;stroke:#fbc011;stroke-width:38.9832384;stroke-miterlimit:4;stroke-dasharray:none;stroke-opacity:1" />
   <line
   class="fil1 str1"
   x1="148.87"
   y1="297.10999"
   x2="381.89001"
   y2="456.82001"
   id="line34"
   style="fill:none;fill-rule:nonzero;stroke:#fbc011;stroke-width:38.9832384;stroke-miterlimit:4;stroke-dasharray:none;stroke-opacity:1" />
   <line
   class="fil1 str1"
   x1="756.07001"
   y1="292.32999"
   x2="516.06"
   y2="456.82001"
   id="line36"
   style="fill:none;fill-rule:nonzero;stroke:#fbc011;stroke-width:38.9832384;stroke-miterlimit:4;stroke-dasharray:none;stroke-opacity:1" />
   <line
   class="fil1 str1"
   x1="448.95999"
   y1="537.35999"
   x2="448.95999"
   y2="814.48999"
   id="line38"
   style="fill:none;fill-rule:nonzero;stroke:#fbc011;stroke-width:38.9832384;stroke-miterlimit:4;stroke-dasharray:none;stroke-opacity:1" />
  </g></g>
 </g></g></svg>